# xmcd
#
# Track frame offsets:
#	150
#	14782
#	33230
#	47257
#	57495
#	73397
#	88157
#	106457
#	127547
#	142425
#
# Disc length: 2099 seconds
#
# Revision: 1
# Processed by: cddbd v1.4PL0 Copyright (c) Steve Scherf et al.
# Submitted via: audiograbber 1.80
#
DISCID=9208310a
DTITLE=Raízes - Só Não Bastam Palavras
DYEAR=1900
DGENRE=
TTITLE0=Não Só Palavras
TTITLE1=Faz Parte de Mim
TTITLE2=Amor Verdadeiro
TTITLE3=Tá Na Hora
TTITLE4=Blues
TTITLE5=Só Você
TTITLE6=Volta Logo
TTITLE7=Basta O Seu Olhar
TTITLE8=A Melhor Saída
TTITLE9=Outra Vez
EXTD=Vocal: Hilton J. Silva (Hiltinho]\nBaixo/Vocal: Gladson L. de Freitas\nBat
EXTD=eria: Moisés O. de Andrade\nSax-Alto/Vocal: André L. dos Santos (Andrax]\n
EXTD=Teclados/Vocal: André Barcellos\nGuitarra/Vocal: Edilênio S. Souza
EXTT0=
EXTT1=
EXTT2=
EXTT3=
EXTT4=
EXTT5=
EXTT6=
EXTT7=
EXTT8=
EXTT9=
PLAYORDER=
